<?xml version="1.0" encoding="UTF-8" standalone="no"?>
<!DOCTYPE svg PUBLIC "-//W3C//DTD SVG 1.1//EN"
 "http://www.w3.org/Graphics/SVG/1.1/DTD/svg11.dtd">
<!-- Generated by graphviz version 2.43.0 (0)
 -->
<!-- Title: %3 Pages: 1 -->
<svg width="3364pt" height="764pt"
 viewBox="0.00 0.00 3363.97 764.00" xmlns="http://www.w3.org/2000/svg" xmlns:xlink="http://www.w3.org/1999/xlink">
<g id="graph0" class="graph" transform="scale(1 1) rotate(0) translate(4 760)">
<title>%3</title>
<polygon fill="white" stroke="transparent" points="-4,4 -4,-760 3359.97,-760 3359.97,4 -4,4"/>
<!-- [root] aws_instance.dev_node (expand) -->
<g id="node1" class="node">
<title>[root] aws_instance.dev_node (expand)</title>
<polygon fill="none" stroke="black" points="1724,-468 1542,-468 1542,-432 1724,-432 1724,-468"/>
<text text-anchor="middle" x="1633" y="-446.3" font-family="Times,serif" font-size="14.00">aws_instance.dev_node</text>
</g>
<!-- [root] aws_key_pair.mtc_auth (expand) -->
<g id="node3" class="node">
<title>[root] aws_key_pair.mtc_auth (expand)</title>
<polygon fill="none" stroke="black" points="1652,-396 1472,-396 1472,-360 1652,-360 1652,-396"/>
<text text-anchor="middle" x="1562" y="-374.3" font-family="Times,serif" font-size="14.00">aws_key_pair.mtc_auth</text>
</g>
<!-- [root] aws_instance.dev_node (expand)&#45;&gt;[root] aws_key_pair.mtc_auth (expand) -->
<g id="edge1" class="edge">
<title>[root] aws_instance.dev_node (expand)&#45;&gt;[root] aws_key_pair.mtc_auth (expand)</title>
<path fill="none" stroke="black" d="M1615.45,-431.7C1606.77,-423.14 1596.14,-412.66 1586.65,-403.3"/>
<polygon fill="black" stroke="black" points="1588.93,-400.63 1579.35,-396.1 1584.01,-405.62 1588.93,-400.63"/>
</g>
<!-- [root] aws_security_group.mtc_sg (expand) -->
<g id="node7" class="node">
<title>[root] aws_security_group.mtc_sg (expand)</title>
<polygon fill="none" stroke="black" points="1136,-396 924,-396 924,-360 1136,-360 1136,-396"/>
<text text-anchor="middle" x="1030" y="-374.3" font-family="Times,serif" font-size="14.00">aws_security_group.mtc_sg</text>
</g>
<!-- [root] aws_instance.dev_node (expand)&#45;&gt;[root] aws_security_group.mtc_sg (expand) -->
<g id="edge2" class="edge">
<title>[root] aws_instance.dev_node (expand)&#45;&gt;[root] aws_security_group.mtc_sg (expand)</title>
<path fill="none" stroke="black" d="M1541.59,-440.13C1445.74,-430.6 1290.48,-414.46 1146.53,-396.17"/>
<polygon fill="black" stroke="black" points="1146.55,-392.64 1136.19,-394.85 1145.66,-399.59 1146.55,-392.64"/>
</g>
<!-- [root] aws_subnet.mtc_public_subnet (expand) -->
<g id="node8" class="node">
<title>[root] aws_subnet.mtc_public_subnet (expand)</title>
<polygon fill="none" stroke="black" points="2888.5,-396 2651.5,-396 2651.5,-360 2888.5,-360 2888.5,-396"/>
<text text-anchor="middle" x="2770" y="-374.3" font-family="Times,serif" font-size="14.00">aws_subnet.mtc_public_subnet</text>
</g>
<!-- [root] aws_instance.dev_node (expand)&#45;&gt;[root] aws_subnet.mtc_public_subnet (expand) -->
<g id="edge3" class="edge">
<title>[root] aws_instance.dev_node (expand)&#45;&gt;[root] aws_subnet.mtc_public_subnet (expand)</title>
<path fill="none" stroke="black" d="M1724.06,-446.68C1899.57,-441.68 2297.05,-427.72 2641.23,-396.12"/>
<polygon fill="black" stroke="black" points="2641.76,-399.59 2651.39,-395.18 2641.11,-392.62 2641.76,-399.59"/>
</g>
<!-- [root] var.ami -->
<g id="node25" class="node">
<title>[root] var.ami</title>
<polygon fill="none" stroke="black" points="1733.5,-396 1670.5,-396 1670.5,-360 1739.5,-360 1739.5,-390 1733.5,-396"/>
<polyline fill="none" stroke="black" points="1733.5,-396 1733.5,-390 "/>
<polyline fill="none" stroke="black" points="1739.5,-390 1733.5,-390 "/>
<text text-anchor="middle" x="1705" y="-374.3" font-family="Times,serif" font-size="14.00">var.ami</text>
</g>
<!-- [root] aws_instance.dev_node (expand)&#45;&gt;[root] var.ami -->
<g id="edge4" class="edge">
<title>[root] aws_instance.dev_node (expand)&#45;&gt;[root] var.ami</title>
<path fill="none" stroke="black" d="M1650.8,-431.7C1659.6,-423.14 1670.38,-412.66 1680,-403.3"/>
<polygon fill="black" stroke="black" points="1682.68,-405.58 1687.41,-396.1 1677.8,-400.57 1682.68,-405.58"/>
</g>
<!-- [root] var.instance_count -->
<g id="node30" class="node">
<title>[root] var.instance_count</title>
<polygon fill="none" stroke="black" points="1900.5,-396 1757.5,-396 1757.5,-360 1906.5,-360 1906.5,-390 1900.5,-396"/>
<polyline fill="none" stroke="black" points="1900.5,-396 1900.5,-390 "/>
<polyline fill="none" stroke="black" points="1906.5,-390 1900.5,-390 "/>
<text text-anchor="middle" x="1832" y="-374.3" font-family="Times,serif" font-size="14.00">var.instance_count</text>
</g>
<!-- [root] aws_instance.dev_node (expand)&#45;&gt;[root] var.instance_count -->
<g id="edge5" class="edge">
<title>[root] aws_instance.dev_node (expand)&#45;&gt;[root] var.instance_count</title>
<path fill="none" stroke="black" d="M1681.43,-431.97C1709.23,-422.19 1744.34,-409.84 1773.65,-399.52"/>
<polygon fill="black" stroke="black" points="1775.08,-402.73 1783.36,-396.11 1772.76,-396.13 1775.08,-402.73"/>
</g>
<!-- [root] var.instance_tags -->
<g id="node31" class="node">
<title>[root] var.instance_tags</title>
<polygon fill="none" stroke="black" points="1288,-396 1154,-396 1154,-360 1294,-360 1294,-390 1288,-396"/>
<polyline fill="none" stroke="black" points="1288,-396 1288,-390 "/>
<polyline fill="none" stroke="black" points="1294,-390 1288,-390 "/>
<text text-anchor="middle" x="1224" y="-374.3" font-family="Times,serif" font-size="14.00">var.instance_tags</text>
</g>
<!-- [root] aws_instance.dev_node (expand)&#45;&gt;[root] var.instance_tags -->
<g id="edge6" class="edge">
<title>[root] aws_instance.dev_node (expand)&#45;&gt;[root] var.instance_tags</title>
<path fill="none" stroke="black" d="M1541.67,-435.53C1477.98,-425.85 1390.8,-412.02 1304.21,-395.99"/>
<polygon fill="black" stroke="black" points="1304.67,-392.51 1294.2,-394.12 1303.39,-399.39 1304.67,-392.51"/>
</g>
<!-- [root] var.instance_type -->
<g id="node32" class="node">
<title>[root] var.instance_type</title>
<polygon fill="none" stroke="black" points="1447.5,-396 1312.5,-396 1312.5,-360 1453.5,-360 1453.5,-390 1447.5,-396"/>
<polyline fill="none" stroke="black" points="1447.5,-396 1447.5,-390 "/>
<polyline fill="none" stroke="black" points="1453.5,-390 1447.5,-390 "/>
<text text-anchor="middle" x="1383" y="-374.3" font-family="Times,serif" font-size="14.00">var.instance_type</text>
</g>
<!-- [root] aws_instance.dev_node (expand)&#45;&gt;[root] var.instance_type -->
<g id="edge7" class="edge">
<title>[root] aws_instance.dev_node (expand)&#45;&gt;[root] var.instance_type</title>
<path fill="none" stroke="black" d="M1572.16,-431.97C1536.47,-421.97 1491.21,-409.3 1453.91,-398.85"/>
<polygon fill="black" stroke="black" points="1454.68,-395.44 1444.11,-396.11 1452.8,-402.18 1454.68,-395.44"/>
</g>
<!-- [root] aws_internet_gateway.mtc_internet_gateway (expand) -->
<g id="node2" class="node">
<title>[root] aws_internet_gateway.mtc_internet_gateway (expand)</title>
<polygon fill="none" stroke="black" points="2104,-252 1768,-252 1768,-216 2104,-216 2104,-252"/>
<text text-anchor="middle" x="1936" y="-230.3" font-family="Times,serif" font-size="14.00">aws_internet_gateway.mtc_internet_gateway</text>
</g>
<!-- [root] aws_vpc.mtc_vpc (expand) -->
<g id="node9" class="node">
<title>[root] aws_vpc.mtc_vpc (expand)</title>
<polygon fill="none" stroke="black" points="2307.5,-180 2168.5,-180 2168.5,-144 2307.5,-144 2307.5,-180"/>
<text text-anchor="middle" x="2238" y="-158.3" font-family="Times,serif" font-size="14.00">aws_vpc.mtc_vpc</text>
</g>
<!-- [root] aws_internet_gateway.mtc_internet_gateway (expand)&#45;&gt;[root] aws_vpc.mtc_vpc (expand) -->
<g id="edge8" class="edge">
<title>[root] aws_internet_gateway.mtc_internet_gateway (expand)&#45;&gt;[root] aws_vpc.mtc_vpc (expand)</title>
<path fill="none" stroke="black" d="M2009.49,-215.97C2054.55,-205.52 2112.24,-192.15 2158.38,-181.46"/>
<polygon fill="black" stroke="black" points="2159.39,-184.81 2168.34,-179.15 2157.81,-178 2159.39,-184.81"/>
</g>
<!-- [root] provider[&quot;registry.terraform.io/hashicorp/aws&quot;] -->
<g id="node19" class="node">
<title>[root] provider[&quot;registry.terraform.io/hashicorp/aws&quot;]</title>
<polygon fill="none" stroke="black" points="2238,-108 1912.74,-90 2238,-72 2563.26,-90 2238,-108"/>
<text text-anchor="middle" x="2238" y="-86.3" font-family="Times,serif" font-size="14.00">provider[&quot;registry.terraform.io/hashicorp/aws&quot;]</text>
</g>
<!-- [root] aws_key_pair.mtc_auth (expand)&#45;&gt;[root] provider[&quot;registry.terraform.io/hashicorp/aws&quot;] -->
<g id="edge9" class="edge">
<title>[root] aws_key_pair.mtc_auth (expand)&#45;&gt;[root] provider[&quot;registry.terraform.io/hashicorp/aws&quot;]</title>
<path fill="none" stroke="black" d="M1577.87,-359.82C1609.25,-326.89 1682.81,-254.72 1759,-216 1880.85,-154.07 2036.17,-120.84 2136.35,-104.56"/>
<polygon fill="black" stroke="black" points="2137.15,-107.98 2146.47,-102.94 2136.04,-101.06 2137.15,-107.98"/>
</g>
<!-- [root] tls_private_key.pk (expand) -->
<g id="node24" class="node">
<title>[root] tls_private_key.pk (expand)</title>
<polygon fill="none" stroke="black" points="3004.5,-324 2861.5,-324 2861.5,-288 3004.5,-288 3004.5,-324"/>
<text text-anchor="middle" x="2933" y="-302.3" font-family="Times,serif" font-size="14.00">tls_private_key.pk</text>
</g>
<!-- [root] aws_key_pair.mtc_auth (expand)&#45;&gt;[root] tls_private_key.pk (expand) -->
<g id="edge10" class="edge">
<title>[root] aws_key_pair.mtc_auth (expand)&#45;&gt;[root] tls_private_key.pk (expand)</title>
<path fill="none" stroke="black" d="M1652.14,-361.14C1655.47,-360.72 1658.76,-360.34 1662,-360 2109.14,-312.86 2648.92,-307.18 2851.21,-306.83"/>
<polygon fill="black" stroke="black" points="2851.46,-310.33 2861.45,-306.81 2851.45,-303.33 2851.46,-310.33"/>
</g>
<!-- [root] aws_route.default_route (expand) -->
<g id="node4" class="node">
<title>[root] aws_route.default_route (expand)</title>
<polygon fill="none" stroke="black" points="2030.5,-324 1841.5,-324 1841.5,-288 2030.5,-288 2030.5,-324"/>
<text text-anchor="middle" x="1936" y="-302.3" font-family="Times,serif" font-size="14.00">aws_route.default_route</text>
</g>
<!-- [root] aws_route.default_route (expand)&#45;&gt;[root] aws_internet_gateway.mtc_internet_gateway (expand) -->
<g id="edge11" class="edge">
<title>[root] aws_route.default_route (expand)&#45;&gt;[root] aws_internet_gateway.mtc_internet_gateway (expand)</title>
<path fill="none" stroke="black" d="M1936,-287.7C1936,-279.98 1936,-270.71 1936,-262.11"/>
<polygon fill="black" stroke="black" points="1939.5,-262.1 1936,-252.1 1932.5,-262.1 1939.5,-262.1"/>
</g>
<!-- [root] aws_route_table.mtc_public_rt (expand) -->
<g id="node5" class="node">
<title>[root] aws_route_table.mtc_public_rt (expand)</title>
<polygon fill="none" stroke="black" points="2354.5,-252 2121.5,-252 2121.5,-216 2354.5,-216 2354.5,-252"/>
<text text-anchor="middle" x="2238" y="-230.3" font-family="Times,serif" font-size="14.00">aws_route_table.mtc_public_rt</text>
</g>
<!-- [root] aws_route.default_route (expand)&#45;&gt;[root] aws_route_table.mtc_public_rt (expand) -->
<g id="edge12" class="edge">
<title>[root] aws_route.default_route (expand)&#45;&gt;[root] aws_route_table.mtc_public_rt (expand)</title>
<path fill="none" stroke="black" d="M2009.49,-287.97C2053.33,-277.8 2109.12,-264.87 2154.6,-254.33"/>
<polygon fill="black" stroke="black" points="2155.49,-257.72 2164.44,-252.05 2153.91,-250.9 2155.49,-257.72"/>
</g>
<!-- [root] aws_route_table.mtc_public_rt (expand)&#45;&gt;[root] aws_vpc.mtc_vpc (expand) -->
<g id="edge13" class="edge">
<title>[root] aws_route_table.mtc_public_rt (expand)&#45;&gt;[root] aws_vpc.mtc_vpc (expand)</title>
<path fill="none" stroke="black" d="M2238,-215.7C2238,-207.98 2238,-198.71 2238,-190.11"/>
<polygon fill="black" stroke="black" points="2241.5,-190.1 2238,-180.1 2234.5,-190.1 2241.5,-190.1"/>
</g>
<!-- [root] aws_route_table_association.mtc_public_assoc (expand) -->
<g id="node6" class="node">
<title>[root] aws_route_table_association.mtc_public_assoc (expand)</title>
<polygon fill="none" stroke="black" points="2943,-468 2597,-468 2597,-432 2943,-432 2943,-468"/>
<text text-anchor="middle" x="2770" y="-446.3" font-family="Times,serif" font-size="14.00">aws_route_table_association.mtc_public_assoc</text>
</g>
<!-- [root] aws_route_table_association.mtc_public_assoc (expand)&#45;&gt;[root] aws_route_table.mtc_public_rt (expand) -->
<g id="edge14" class="edge">
<title>[root] aws_route_table_association.mtc_public_assoc (expand)&#45;&gt;[root] aws_route_table.mtc_public_rt (expand)</title>
<path fill="none" stroke="black" d="M2850.83,-431.98C2869.34,-424.14 2886.84,-412.7 2898,-396 2906.89,-382.7 2908.21,-372.32 2898,-360 2880.78,-339.21 2542.99,-283.07 2357.52,-253.62"/>
<polygon fill="black" stroke="black" points="2357.86,-250.13 2347.44,-252.02 2356.77,-257.04 2357.86,-250.13"/>
</g>
<!-- [root] aws_route_table_association.mtc_public_assoc (expand)&#45;&gt;[root] aws_subnet.mtc_public_subnet (expand) -->
<g id="edge15" class="edge">
<title>[root] aws_route_table_association.mtc_public_assoc (expand)&#45;&gt;[root] aws_subnet.mtc_public_subnet (expand)</title>
<path fill="none" stroke="black" d="M2770,-431.7C2770,-423.98 2770,-414.71 2770,-406.11"/>
<polygon fill="black" stroke="black" points="2773.5,-406.1 2770,-396.1 2766.5,-406.1 2773.5,-406.1"/>
</g>
<!-- [root] aws_security_group.mtc_sg (expand)&#45;&gt;[root] aws_route.default_route (expand) -->
<g id="edge16" class="edge">
<title>[root] aws_security_group.mtc_sg (expand)&#45;&gt;[root] aws_route.default_route (expand)</title>
<path fill="none" stroke="black" d="M1136.17,-360.99C1139.14,-360.64 1142.09,-360.31 1145,-360 1390.14,-333.71 1679.52,-318.26 1831.19,-311.35"/>
<polygon fill="black" stroke="black" points="1831.59,-314.84 1841.42,-310.89 1831.28,-307.85 1831.59,-314.84"/>
</g>
<!-- [root] aws_subnet.mtc_public_subnet (expand)&#45;&gt;[root] aws_vpc.mtc_vpc (expand) -->
<g id="edge17" class="edge">
<title>[root] aws_subnet.mtc_public_subnet (expand)&#45;&gt;[root] aws_vpc.mtc_vpc (expand)</title>
<path fill="none" stroke="black" d="M2888.6,-365.31C2942.36,-357.32 2997.57,-344.38 3014,-324 3044.12,-286.63 3046.76,-251.08 3014,-216 3002.21,-203.38 2513.65,-177.08 2317.89,-167.03"/>
<polygon fill="black" stroke="black" points="2317.84,-163.52 2307.67,-166.5 2317.48,-170.51 2317.84,-163.52"/>
</g>
<!-- [root] aws_vpc.mtc_vpc (expand)&#45;&gt;[root] provider[&quot;registry.terraform.io/hashicorp/aws&quot;] -->
<g id="edge18" class="edge">
<title>[root] aws_vpc.mtc_vpc (expand)&#45;&gt;[root] provider[&quot;registry.terraform.io/hashicorp/aws&quot;]</title>
<path fill="none" stroke="black" d="M2238,-143.7C2238,-135.98 2238,-126.71 2238,-118.11"/>
<polygon fill="black" stroke="black" points="2241.5,-118.1 2238,-108.1 2234.5,-118.1 2241.5,-118.1"/>
</g>
<!-- [root] data.aws_ami.server_ami (expand) -->
<g id="node10" class="node">
<title>[root] data.aws_ami.server_ami (expand)</title>
<polygon fill="none" stroke="black" points="2845.5,-180 2648.5,-180 2648.5,-144 2845.5,-144 2845.5,-180"/>
<text text-anchor="middle" x="2747" y="-158.3" font-family="Times,serif" font-size="14.00">data.aws_ami.server_ami</text>
</g>
<!-- [root] data.aws_ami.server_ami (expand)&#45;&gt;[root] provider[&quot;registry.terraform.io/hashicorp/aws&quot;] -->
<g id="edge19" class="edge">
<title>[root] data.aws_ami.server_ami (expand)&#45;&gt;[root] provider[&quot;registry.terraform.io/hashicorp/aws&quot;]</title>
<path fill="none" stroke="black" d="M2648.26,-147.42C2558.25,-135.04 2426.01,-116.86 2336.18,-104.5"/>
<polygon fill="black" stroke="black" points="2336.65,-101.03 2326.26,-103.14 2335.69,-107.97 2336.65,-101.03"/>
</g>
<!-- [root] data.external.current_user (expand) -->
<g id="node11" class="node">
<title>[root] data.external.current_user (expand)</title>
<polygon fill="none" stroke="black" points="2383,-468 2175,-468 2175,-432 2383,-432 2383,-468"/>
<text text-anchor="middle" x="2279" y="-446.3" font-family="Times,serif" font-size="14.00">data.external.current_user</text>
</g>
<!-- [root] provider[&quot;registry.terraform.io/hashicorp/external&quot;] -->
<g id="node20" class="node">
<title>[root] provider[&quot;registry.terraform.io/hashicorp/external&quot;]</title>
<polygon fill="none" stroke="black" points="2279,-396 1924.41,-378 2279,-360 2633.59,-378 2279,-396"/>
<text text-anchor="middle" x="2279" y="-374.3" font-family="Times,serif" font-size="14.00">provider[&quot;registry.terraform.io/hashicorp/external&quot;]</text>
</g>
<!-- [root] data.external.current_user (expand)&#45;&gt;[root] provider[&quot;registry.terraform.io/hashicorp/external&quot;] -->
<g id="edge20" class="edge">
<title>[root] data.external.current_user (expand)&#45;&gt;[root] provider[&quot;registry.terraform.io/hashicorp/external&quot;]</title>
<path fill="none" stroke="black" d="M2279,-431.7C2279,-423.98 2279,-414.71 2279,-406.11"/>
<polygon fill="black" stroke="black" points="2282.5,-406.1 2279,-396.1 2275.5,-406.1 2282.5,-406.1"/>
</g>
<!-- [root] local_file.generate_ansible_inventory (expand) -->
<g id="node12" class="node">
<title>[root] local_file.generate_ansible_inventory (expand)</title>
<polygon fill="none" stroke="black" points="649.5,-540 370.5,-540 370.5,-504 649.5,-504 649.5,-540"/>
<text text-anchor="middle" x="510" y="-518.3" font-family="Times,serif" font-size="14.00">local_file.generate_ansible_inventory</text>
</g>
<!-- [root] local_file.generate_ansible_inventory (expand)&#45;&gt;[root] aws_instance.dev_node (expand) -->
<g id="edge21" class="edge">
<title>[root] local_file.generate_ansible_inventory (expand)&#45;&gt;[root] aws_instance.dev_node (expand)</title>
<path fill="none" stroke="black" d="M649.56,-504.82C652.74,-504.54 655.89,-504.26 659,-504 977.04,-477.23 1354.69,-461.15 1531.81,-454.53"/>
<polygon fill="black" stroke="black" points="1532.04,-458.02 1541.9,-454.15 1531.78,-451.03 1532.04,-458.02"/>
</g>
<!-- [root] provider[&quot;registry.terraform.io/hashicorp/local&quot;] -->
<g id="node21" class="node">
<title>[root] provider[&quot;registry.terraform.io/hashicorp/local&quot;]</title>
<polygon fill="none" stroke="black" points="510,-468 180.05,-450 510,-432 839.95,-450 510,-468"/>
<text text-anchor="middle" x="510" y="-446.3" font-family="Times,serif" font-size="14.00">provider[&quot;registry.terraform.io/hashicorp/local&quot;]</text>
</g>
<!-- [root] local_file.generate_ansible_inventory (expand)&#45;&gt;[root] provider[&quot;registry.terraform.io/hashicorp/local&quot;] -->
<g id="edge22" class="edge">
<title>[root] local_file.generate_ansible_inventory (expand)&#45;&gt;[root] provider[&quot;registry.terraform.io/hashicorp/local&quot;]</title>
<path fill="none" stroke="black" d="M510,-503.7C510,-495.98 510,-486.71 510,-478.11"/>
<polygon fill="black" stroke="black" points="513.5,-478.1 510,-468.1 506.5,-478.1 513.5,-478.1"/>
</g>
<!-- [root] local_file.generate_ansible_playbook_install_git (expand) -->
<g id="node13" class="node">
<title>[root] local_file.generate_ansible_playbook_install_git (expand)</title>
<polygon fill="none" stroke="black" points="352,-540 0,-540 0,-504 352,-504 352,-540"/>
<text text-anchor="middle" x="176" y="-518.3" font-family="Times,serif" font-size="14.00">local_file.generate_ansible_playbook_install_git</text>
</g>
<!-- [root] local_file.generate_ansible_playbook_install_git (expand)&#45;&gt;[root] aws_instance.dev_node (expand) -->
<g id="edge23" class="edge">
<title>[root] local_file.generate_ansible_playbook_install_git (expand)&#45;&gt;[root] aws_instance.dev_node (expand)</title>
<path fill="none" stroke="black" d="M352.24,-504.6C355.18,-504.39 358.1,-504.19 361,-504 796.26,-474.95 1316.44,-459.19 1531.89,-453.5"/>
<polygon fill="black" stroke="black" points="1532.01,-456.99 1541.91,-453.23 1531.83,-450 1532.01,-456.99"/>
</g>
<!-- [root] local_file.generate_ansible_playbook_install_git (expand)&#45;&gt;[root] provider[&quot;registry.terraform.io/hashicorp/local&quot;] -->
<g id="edge24" class="edge">
<title>[root] local_file.generate_ansible_playbook_install_git (expand)&#45;&gt;[root] provider[&quot;registry.terraform.io/hashicorp/local&quot;]</title>
<path fill="none" stroke="black" d="M257.28,-503.97C311.61,-492.58 382.55,-477.71 435.43,-466.63"/>
<polygon fill="black" stroke="black" points="436.35,-470.01 445.42,-464.53 434.92,-463.16 436.35,-470.01"/>
</g>
<!-- [root] local_file.generate_ansible_ssh_config_local (expand) -->
<g id="node14" class="node">
<title>[root] local_file.generate_ansible_ssh_config_local (expand)</title>
<polygon fill="none" stroke="black" points="992,-540 668,-540 668,-504 992,-504 992,-540"/>
<text text-anchor="middle" x="830" y="-518.3" font-family="Times,serif" font-size="14.00">local_file.generate_ansible_ssh_config_local</text>
</g>
<!-- [root] local_file.generate_ansible_ssh_config_local (expand)&#45;&gt;[root] aws_instance.dev_node (expand) -->
<g id="edge25" class="edge">
<title>[root] local_file.generate_ansible_ssh_config_local (expand)&#45;&gt;[root] aws_instance.dev_node (expand)</title>
<path fill="none" stroke="black" d="M992.01,-504.83C995.03,-504.55 998.03,-504.27 1001,-504 1188.17,-486.85 1406.73,-469.01 1531.6,-459.02"/>
<polygon fill="black" stroke="black" points="1532.22,-462.48 1541.91,-458.2 1531.66,-455.5 1532.22,-462.48"/>
</g>
<!-- [root] local_file.generate_ansible_ssh_config_local (expand)&#45;&gt;[root] data.external.current_user (expand) -->
<g id="edge26" class="edge">
<title>[root] local_file.generate_ansible_ssh_config_local (expand)&#45;&gt;[root] data.external.current_user (expand)</title>
<path fill="none" stroke="black" d="M992.45,-504.62C995.32,-504.41 998.17,-504.2 1001,-504 1225.31,-488.21 1894.53,-464.23 2164.35,-454.91"/>
<polygon fill="black" stroke="black" points="2164.69,-458.4 2174.56,-454.55 2164.45,-451.4 2164.69,-458.4"/>
</g>
<!-- [root] local_file.generate_ansible_ssh_config_local (expand)&#45;&gt;[root] provider[&quot;registry.terraform.io/hashicorp/local&quot;] -->
<g id="edge27" class="edge">
<title>[root] local_file.generate_ansible_ssh_config_local (expand)&#45;&gt;[root] provider[&quot;registry.terraform.io/hashicorp/local&quot;]</title>
<path fill="none" stroke="black" d="M752.13,-503.97C700.36,-492.64 632.85,-477.87 582.27,-466.81"/>
<polygon fill="black" stroke="black" points="582.9,-463.36 572.39,-464.65 581.41,-470.2 582.9,-463.36"/>
</g>
<!-- [root] null_resource.change_instance_state (expand) -->
<g id="node15" class="node">
<title>[root] null_resource.change_instance_state (expand)</title>
<polygon fill="none" stroke="black" points="1884,-612 1606,-612 1606,-576 1884,-576 1884,-612"/>
<text text-anchor="middle" x="1745" y="-590.3" font-family="Times,serif" font-size="14.00">null_resource.change_instance_state</text>
</g>
<!-- [root] null_resource.change_instance_state (expand)&#45;&gt;[root] aws_instance.dev_node (expand) -->
<g id="edge28" class="edge">
<title>[root] null_resource.change_instance_state (expand)&#45;&gt;[root] aws_instance.dev_node (expand)</title>
<path fill="none" stroke="black" d="M1818.7,-575.91C1836.86,-568.04 1854.18,-556.6 1865,-540 1873.73,-526.59 1874.97,-516.51 1865,-504 1848.27,-483.02 1788.77,-469.68 1734.22,-461.63"/>
<polygon fill="black" stroke="black" points="1734.5,-458.14 1724.11,-460.19 1733.51,-465.07 1734.5,-458.14"/>
</g>
<!-- [root] provider[&quot;registry.terraform.io/hashicorp/null&quot;] -->
<g id="node22" class="node">
<title>[root] provider[&quot;registry.terraform.io/hashicorp/null&quot;]</title>
<polygon fill="none" stroke="black" points="1334,-540 1009.57,-522 1334,-504 1658.43,-522 1334,-540"/>
<text text-anchor="middle" x="1334" y="-518.3" font-family="Times,serif" font-size="14.00">provider[&quot;registry.terraform.io/hashicorp/null&quot;]</text>
</g>
<!-- [root] null_resource.change_instance_state (expand)&#45;&gt;[root] provider[&quot;registry.terraform.io/hashicorp/null&quot;] -->
<g id="edge29" class="edge">
<title>[root] null_resource.change_instance_state (expand)&#45;&gt;[root] provider[&quot;registry.terraform.io/hashicorp/null&quot;]</title>
<path fill="none" stroke="black" d="M1644.98,-575.97C1575.94,-564.21 1485.1,-548.73 1419.44,-537.55"/>
<polygon fill="black" stroke="black" points="1419.98,-534.09 1409.53,-535.86 1418.8,-540.99 1419.98,-534.09"/>
</g>
<!-- [root] var.instance&#45;state -->
<g id="node28" class="node">
<title>[root] var.instance&#45;state</title>
<polygon fill="none" stroke="black" points="2049.5,-540 1912.5,-540 1912.5,-504 2055.5,-504 2055.5,-534 2049.5,-540"/>
<polyline fill="none" stroke="black" points="2049.5,-540 2049.5,-534 "/>
<polyline fill="none" stroke="black" points="2055.5,-534 2049.5,-534 "/>
<text text-anchor="middle" x="1984" y="-518.3" font-family="Times,serif" font-size="14.00">var.instance&#45;state</text>
</g>
<!-- [root] null_resource.change_instance_state (expand)&#45;&gt;[root] var.instance&#45;state -->
<g id="edge30" class="edge">
<title>[root] null_resource.change_instance_state (expand)&#45;&gt;[root] var.instance&#45;state</title>
<path fill="none" stroke="black" d="M1803.16,-575.97C1837.13,-566.01 1880.18,-553.41 1915.76,-542.99"/>
<polygon fill="black" stroke="black" points="1916.97,-546.28 1925.58,-540.11 1915,-539.56 1916.97,-546.28"/>
</g>
<!-- [root] var.instance&#45;state&#45;map -->
<g id="node29" class="node">
<title>[root] var.instance&#45;state&#45;map</title>
<polygon fill="none" stroke="black" points="1849.5,-540 1676.5,-540 1676.5,-504 1855.5,-504 1855.5,-534 1849.5,-540"/>
<polyline fill="none" stroke="black" points="1849.5,-540 1849.5,-534 "/>
<polyline fill="none" stroke="black" points="1855.5,-534 1849.5,-534 "/>
<text text-anchor="middle" x="1766" y="-518.3" font-family="Times,serif" font-size="14.00">var.instance&#45;state&#45;map</text>
</g>
<!-- [root] null_resource.change_instance_state (expand)&#45;&gt;[root] var.instance&#45;state&#45;map -->
<g id="edge31" class="edge">
<title>[root] null_resource.change_instance_state (expand)&#45;&gt;[root] var.instance&#45;state&#45;map</title>
<path fill="none" stroke="black" d="M1750.19,-575.7C1752.53,-567.9 1755.35,-558.51 1757.95,-549.83"/>
<polygon fill="black" stroke="black" points="1761.35,-550.69 1760.87,-540.1 1754.64,-548.68 1761.35,-550.69"/>
</g>
<!-- [root] null_resource.update_ssh_config (expand) -->
<g id="node16" class="node">
<title>[root] null_resource.update_ssh_config (expand)</title>
<polygon fill="none" stroke="black" points="1457.5,-612 1210.5,-612 1210.5,-576 1457.5,-576 1457.5,-612"/>
<text text-anchor="middle" x="1334" y="-590.3" font-family="Times,serif" font-size="14.00">null_resource.update_ssh_config</text>
</g>
<!-- [root] null_resource.update_ssh_config (expand)&#45;&gt;[root] local_file.generate_ansible_ssh_config_local (expand) -->
<g id="edge32" class="edge">
<title>[root] null_resource.update_ssh_config (expand)&#45;&gt;[root] local_file.generate_ansible_ssh_config_local (expand)</title>
<path fill="none" stroke="black" d="M1211.35,-575.97C1136.2,-565.53 1039.99,-552.17 963.01,-541.47"/>
<polygon fill="black" stroke="black" points="963.15,-537.96 952.76,-540.05 962.18,-544.89 963.15,-537.96"/>
</g>
<!-- [root] null_resource.update_ssh_config (expand)&#45;&gt;[root] provider[&quot;registry.terraform.io/hashicorp/null&quot;] -->
<g id="edge33" class="edge">
<title>[root] null_resource.update_ssh_config (expand)&#45;&gt;[root] provider[&quot;registry.terraform.io/hashicorp/null&quot;]</title>
<path fill="none" stroke="black" d="M1334,-575.7C1334,-567.98 1334,-558.71 1334,-550.11"/>
<polygon fill="black" stroke="black" points="1337.5,-550.1 1334,-540.1 1330.5,-550.1 1337.5,-550.1"/>
</g>
<!-- [root] output.dev_ip -->
<g id="node17" class="node">
<title>[root] output.dev_ip</title>
<polygon fill="none" stroke="black" points="2010,-612 1902,-612 1902,-576 2016,-576 2016,-606 2010,-612"/>
<polyline fill="none" stroke="black" points="2010,-612 2010,-606 "/>
<polyline fill="none" stroke="black" points="2016,-606 2010,-606 "/>
<text text-anchor="middle" x="1959" y="-590.3" font-family="Times,serif" font-size="14.00">output.dev_ip</text>
</g>
<!-- [root] output.dev_ip&#45;&gt;[root] aws_instance.dev_node (expand) -->
<g id="edge34" class="edge">
<title>[root] output.dev_ip&#45;&gt;[root] aws_instance.dev_node (expand)</title>
<path fill="none" stroke="black" d="M2016.23,-577.8C2035.08,-569.77 2054.02,-557.76 2065,-540 2073.41,-526.39 2075.6,-515.98 2065,-504 2043.42,-479.61 1854.98,-464.03 1734.21,-456.46"/>
<polygon fill="black" stroke="black" points="1734.39,-452.97 1724.19,-455.84 1733.95,-459.95 1734.39,-452.97"/>
</g>
<!-- [root] output.dev_public_dns -->
<g id="node18" class="node">
<title>[root] output.dev_public_dns</title>
<polygon fill="none" stroke="black" points="2204,-612 2034,-612 2034,-576 2210,-576 2210,-606 2204,-612"/>
<polyline fill="none" stroke="black" points="2204,-612 2204,-606 "/>
<polyline fill="none" stroke="black" points="2210,-606 2204,-606 "/>
<text text-anchor="middle" x="2122" y="-590.3" font-family="Times,serif" font-size="14.00">output.dev_public_dns</text>
</g>
<!-- [root] output.dev_public_dns&#45;&gt;[root] aws_instance.dev_node (expand) -->
<g id="edge35" class="edge">
<title>[root] output.dev_public_dns&#45;&gt;[root] aws_instance.dev_node (expand)</title>
<path fill="none" stroke="black" d="M2119.42,-575.75C2115.36,-555.09 2105.36,-521.14 2082,-504 2028.48,-464.73 1849.67,-454.22 1734.5,-451.6"/>
<polygon fill="black" stroke="black" points="1734.32,-448.1 1724.25,-451.39 1734.17,-455.1 1734.32,-448.1"/>
</g>
<!-- [root] var.aws_region -->
<g id="node26" class="node">
<title>[root] var.aws_region</title>
<polygon fill="none" stroke="black" points="2293.5,-36 2176.5,-36 2176.5,0 2299.5,0 2299.5,-30 2293.5,-36"/>
<polyline fill="none" stroke="black" points="2293.5,-36 2293.5,-30 "/>
<polyline fill="none" stroke="black" points="2299.5,-30 2293.5,-30 "/>
<text text-anchor="middle" x="2238" y="-14.3" font-family="Times,serif" font-size="14.00">var.aws_region</text>
</g>
<!-- [root] provider[&quot;registry.terraform.io/hashicorp/aws&quot;]&#45;&gt;[root] var.aws_region -->
<g id="edge39" class="edge">
<title>[root] provider[&quot;registry.terraform.io/hashicorp/aws&quot;]&#45;&gt;[root] var.aws_region</title>
<path fill="none" stroke="black" d="M2238,-71.7C2238,-63.98 2238,-54.71 2238,-46.11"/>
<polygon fill="black" stroke="black" points="2241.5,-46.1 2238,-36.1 2234.5,-46.1 2241.5,-46.1"/>
</g>
<!-- [root] provider[&quot;registry.terraform.io/hashicorp/tls&quot;] -->
<g id="node23" class="node">
<title>[root] provider[&quot;registry.terraform.io/hashicorp/tls&quot;]</title>
<polygon fill="none" stroke="black" points="2689,-252 2372.62,-234 2689,-216 3005.38,-234 2689,-252"/>
<text text-anchor="middle" x="2689" y="-230.3" font-family="Times,serif" font-size="14.00">provider[&quot;registry.terraform.io/hashicorp/tls&quot;]</text>
</g>
<!-- [root] tls_private_key.pk (expand)&#45;&gt;[root] provider[&quot;registry.terraform.io/hashicorp/tls&quot;] -->
<g id="edge55" class="edge">
<title>[root] tls_private_key.pk (expand)&#45;&gt;[root] provider[&quot;registry.terraform.io/hashicorp/tls&quot;]</title>
<path fill="none" stroke="black" d="M2873.62,-287.97C2835.68,-277.08 2786.65,-263.02 2748.66,-252.12"/>
<polygon fill="black" stroke="black" points="2749.33,-248.67 2738.75,-249.27 2747.4,-255.4 2749.33,-248.67"/>
</g>
<!-- [root] var.host_os -->
<g id="node27" class="node">
<title>[root] var.host_os</title>
<polygon fill="none" stroke="black" points="2719,-684 2629,-684 2629,-648 2725,-648 2725,-678 2719,-684"/>
<polyline fill="none" stroke="black" points="2719,-684 2719,-678 "/>
<polyline fill="none" stroke="black" points="2725,-678 2719,-678 "/>
<text text-anchor="middle" x="2677" y="-662.3" font-family="Times,serif" font-size="14.00">var.host_os</text>
</g>
<!-- [root] provider[&quot;registry.terraform.io/hashicorp/aws&quot;] (close) -->
<g id="node33" class="node">
<title>[root] provider[&quot;registry.terraform.io/hashicorp/aws&quot;] (close)</title>
<ellipse fill="none" stroke="black" cx="2751" cy="-522" rx="291.65" ry="18"/>
<text text-anchor="middle" x="2751" y="-518.3" font-family="Times,serif" font-size="14.00">[root] provider[&quot;registry.terraform.io/hashicorp/aws&quot;] (close)</text>
</g>
<!-- [root] provider[&quot;registry.terraform.io/hashicorp/aws&quot;] (close)&#45;&gt;[root] aws_instance.dev_node (expand) -->
<g id="edge36" class="edge">
<title>[root] provider[&quot;registry.terraform.io/hashicorp/aws&quot;] (close)&#45;&gt;[root] aws_instance.dev_node (expand)</title>
<path fill="none" stroke="black" d="M2554.34,-508.69C2314.7,-493.68 1918.97,-468.91 1734.07,-457.33"/>
<polygon fill="black" stroke="black" points="1734.28,-453.83 1724.08,-456.7 1733.84,-460.82 1734.28,-453.83"/>
</g>
<!-- [root] provider[&quot;registry.terraform.io/hashicorp/aws&quot;] (close)&#45;&gt;[root] aws_route_table_association.mtc_public_assoc (expand) -->
<g id="edge37" class="edge">
<title>[root] provider[&quot;registry.terraform.io/hashicorp/aws&quot;] (close)&#45;&gt;[root] aws_route_table_association.mtc_public_assoc (expand)</title>
<path fill="none" stroke="black" d="M2755.7,-503.7C2757.81,-495.9 2760.36,-486.51 2762.72,-477.83"/>
<polygon fill="black" stroke="black" points="2766.12,-478.67 2765.36,-468.1 2759.36,-476.84 2766.12,-478.67"/>
</g>
<!-- [root] provider[&quot;registry.terraform.io/hashicorp/aws&quot;] (close)&#45;&gt;[root] data.aws_ami.server_ami (expand) -->
<g id="edge38" class="edge">
<title>[root] provider[&quot;registry.terraform.io/hashicorp/aws&quot;] (close)&#45;&gt;[root] data.aws_ami.server_ami (expand)</title>
<path fill="none" stroke="black" d="M2870.31,-505.56C2899.06,-497.7 2928.28,-485.85 2952,-468 3046.56,-396.84 3113.81,-306.87 3038,-216 3014.75,-188.13 2928.46,-174.88 2855.83,-168.6"/>
<polygon fill="black" stroke="black" points="2855.93,-165.1 2845.68,-167.76 2855.35,-172.07 2855.93,-165.1"/>
</g>
<!-- [root] provider[&quot;registry.terraform.io/hashicorp/external&quot;] (close) -->
<g id="node34" class="node">
<title>[root] provider[&quot;registry.terraform.io/hashicorp/external&quot;] (close)</title>
<ellipse fill="none" stroke="black" cx="2298" cy="-666" rx="312.74" ry="18"/>
<text text-anchor="middle" x="2298" y="-662.3" font-family="Times,serif" font-size="14.00">[root] provider[&quot;registry.terraform.io/hashicorp/external&quot;] (close)</text>
</g>
<!-- [root] provider[&quot;registry.terraform.io/hashicorp/external&quot;] (close)&#45;&gt;[root] data.external.current_user (expand) -->
<g id="edge40" class="edge">
<title>[root] provider[&quot;registry.terraform.io/hashicorp/external&quot;] (close)&#45;&gt;[root] data.external.current_user (expand)</title>
<path fill="none" stroke="black" d="M2296.48,-647.85C2293.19,-610.83 2285.41,-523.18 2281.43,-478.39"/>
<polygon fill="black" stroke="black" points="2284.9,-477.88 2280.53,-468.23 2277.93,-478.5 2284.9,-477.88"/>
</g>
<!-- [root] provider[&quot;registry.terraform.io/hashicorp/local&quot;] (close) -->
<g id="node35" class="node">
<title>[root] provider[&quot;registry.terraform.io/hashicorp/local&quot;] (close)</title>
<ellipse fill="none" stroke="black" cx="670" cy="-594" rx="295.95" ry="18"/>
<text text-anchor="middle" x="670" y="-590.3" font-family="Times,serif" font-size="14.00">[root] provider[&quot;registry.terraform.io/hashicorp/local&quot;] (close)</text>
</g>
<!-- [root] provider[&quot;registry.terraform.io/hashicorp/local&quot;] (close)&#45;&gt;[root] local_file.generate_ansible_inventory (expand) -->
<g id="edge41" class="edge">
<title>[root] provider[&quot;registry.terraform.io/hashicorp/local&quot;] (close)&#45;&gt;[root] local_file.generate_ansible_inventory (expand)</title>
<path fill="none" stroke="black" d="M631.27,-576.05C609.32,-566.45 581.67,-554.35 558.31,-544.14"/>
<polygon fill="black" stroke="black" points="559.49,-540.83 548.93,-540.03 556.69,-547.25 559.49,-540.83"/>
</g>
<!-- [root] provider[&quot;registry.terraform.io/hashicorp/local&quot;] (close)&#45;&gt;[root] local_file.generate_ansible_playbook_install_git (expand) -->
<g id="edge42" class="edge">
<title>[root] provider[&quot;registry.terraform.io/hashicorp/local&quot;] (close)&#45;&gt;[root] local_file.generate_ansible_playbook_install_git (expand)</title>
<path fill="none" stroke="black" d="M559.14,-577.29C484.12,-566.66 384.73,-552.58 305.98,-541.42"/>
<polygon fill="black" stroke="black" points="306.39,-537.94 295.99,-540 305.4,-544.87 306.39,-537.94"/>
</g>
<!-- [root] provider[&quot;registry.terraform.io/hashicorp/local&quot;] (close)&#45;&gt;[root] local_file.generate_ansible_ssh_config_local (expand) -->
<g id="edge43" class="edge">
<title>[root] provider[&quot;registry.terraform.io/hashicorp/local&quot;] (close)&#45;&gt;[root] local_file.generate_ansible_ssh_config_local (expand)</title>
<path fill="none" stroke="black" d="M708.73,-576.05C730.68,-566.45 758.33,-554.35 781.69,-544.14"/>
<polygon fill="black" stroke="black" points="783.31,-547.25 791.07,-540.03 780.51,-540.83 783.31,-547.25"/>
</g>
<!-- [root] provider[&quot;registry.terraform.io/hashicorp/null&quot;] (close) -->
<g id="node36" class="node">
<title>[root] provider[&quot;registry.terraform.io/hashicorp/null&quot;] (close)</title>
<ellipse fill="none" stroke="black" cx="1599" cy="-666" rx="291.65" ry="18"/>
<text text-anchor="middle" x="1599" y="-662.3" font-family="Times,serif" font-size="14.00">[root] provider[&quot;registry.terraform.io/hashicorp/null&quot;] (close)</text>
</g>
<!-- [root] provider[&quot;registry.terraform.io/hashicorp/null&quot;] (close)&#45;&gt;[root] null_resource.change_instance_state (expand) -->
<g id="edge44" class="edge">
<title>[root] provider[&quot;registry.terraform.io/hashicorp/null&quot;] (close)&#45;&gt;[root] null_resource.change_instance_state (expand)</title>
<path fill="none" stroke="black" d="M1634.34,-648.05C1654.19,-638.54 1679.15,-626.57 1700.35,-616.41"/>
<polygon fill="black" stroke="black" points="1701.97,-619.51 1709.48,-612.03 1698.95,-613.2 1701.97,-619.51"/>
</g>
<!-- [root] provider[&quot;registry.terraform.io/hashicorp/null&quot;] (close)&#45;&gt;[root] null_resource.update_ssh_config (expand) -->
<g id="edge45" class="edge">
<title>[root] provider[&quot;registry.terraform.io/hashicorp/null&quot;] (close)&#45;&gt;[root] null_resource.update_ssh_config (expand)</title>
<path fill="none" stroke="black" d="M1536.2,-648.41C1497.88,-638.29 1448.69,-625.3 1408.42,-614.66"/>
<polygon fill="black" stroke="black" points="1409.22,-611.25 1398.65,-612.08 1407.43,-618.02 1409.22,-611.25"/>
</g>
<!-- [root] provider[&quot;registry.terraform.io/hashicorp/tls&quot;] (close) -->
<g id="node37" class="node">
<title>[root] provider[&quot;registry.terraform.io/hashicorp/tls&quot;] (close)</title>
<ellipse fill="none" stroke="black" cx="3070" cy="-666" rx="285.95" ry="18"/>
<text text-anchor="middle" x="3070" y="-662.3" font-family="Times,serif" font-size="14.00">[root] provider[&quot;registry.terraform.io/hashicorp/tls&quot;] (close)</text>
</g>
<!-- [root] provider[&quot;registry.terraform.io/hashicorp/tls&quot;] (close)&#45;&gt;[root] tls_private_key.pk (expand) -->
<g id="edge46" class="edge">
<title>[root] provider[&quot;registry.terraform.io/hashicorp/tls&quot;] (close)&#45;&gt;[root] tls_private_key.pk (expand)</title>
<path fill="none" stroke="black" d="M3070.46,-647.55C3070.74,-617.43 3069,-554.07 3052,-504 3029.16,-436.75 2980.67,-367.91 2953.16,-332.12"/>
<polygon fill="black" stroke="black" points="2955.87,-329.9 2946.97,-324.16 2950.35,-334.2 2955.87,-329.9"/>
</g>
<!-- [root] root -->
<g id="node38" class="node">
<title>[root] root</title>
<ellipse fill="none" stroke="black" cx="2127" cy="-738" rx="58.49" ry="18"/>
<text text-anchor="middle" x="2127" y="-734.3" font-family="Times,serif" font-size="14.00">[root] root</text>
</g>
<!-- [root] root&#45;&gt;[root] output.dev_ip -->
<g id="edge47" class="edge">
<title>[root] root&#45;&gt;[root] output.dev_ip</title>
<path fill="none" stroke="black" d="M2069.87,-733.92C2033.88,-728.74 1989.71,-715.77 1965,-684 1951.52,-666.67 1951.13,-641.25 1953.47,-622"/>
<polygon fill="black" stroke="black" points="1956.94,-622.45 1954.98,-612.04 1950.02,-621.4 1956.94,-622.45"/>
</g>
<!-- [root] root&#45;&gt;[root] output.dev_public_dns -->
<g id="edge48" class="edge">
<title>[root] root&#45;&gt;[root] output.dev_public_dns</title>
<path fill="none" stroke="black" d="M2070.72,-732.93C2037.29,-727.27 1997.37,-714.15 1976,-684 1966.75,-670.95 1966.82,-661.1 1976,-648 1984.59,-635.75 2013.17,-624.15 2042.8,-614.96"/>
<polygon fill="black" stroke="black" points="2043.87,-618.29 2052.43,-612.06 2041.85,-611.59 2043.87,-618.29"/>
</g>
<!-- [root] root&#45;&gt;[root] var.host_os -->
<g id="edge54" class="edge">
<title>[root] root&#45;&gt;[root] var.host_os</title>
<path fill="none" stroke="black" d="M2184.45,-734.23C2275.06,-729.13 2456.65,-715.87 2618.8,-684.03"/>
<polygon fill="black" stroke="black" points="2619.83,-687.39 2628.95,-682 2618.46,-680.52 2619.83,-687.39"/>
</g>
<!-- [root] root&#45;&gt;[root] provider[&quot;registry.terraform.io/hashicorp/aws&quot;] (close) -->
<g id="edge49" class="edge">
<title>[root] root&#45;&gt;[root] provider[&quot;registry.terraform.io/hashicorp/aws&quot;] (close)</title>
<path fill="none" stroke="black" d="M2185.33,-736.05C2329.8,-733.11 2695.34,-721.96 2734,-684 2769.41,-649.23 2764.06,-585.83 2757.33,-549.84"/>
<polygon fill="black" stroke="black" points="2760.76,-549.13 2755.34,-540.03 2753.9,-550.53 2760.76,-549.13"/>
</g>
<!-- [root] root&#45;&gt;[root] provider[&quot;registry.terraform.io/hashicorp/external&quot;] (close) -->
<g id="edge50" class="edge">
<title>[root] root&#45;&gt;[root] provider[&quot;registry.terraform.io/hashicorp/external&quot;] (close)</title>
<path fill="none" stroke="black" d="M2160.78,-723.17C2185.42,-713.08 2219.24,-699.24 2247.14,-687.82"/>
<polygon fill="black" stroke="black" points="2248.81,-690.92 2256.74,-683.89 2246.16,-684.44 2248.81,-690.92"/>
</g>
<!-- [root] root&#45;&gt;[root] provider[&quot;registry.terraform.io/hashicorp/local&quot;] (close) -->
<g id="edge51" class="edge">
<title>[root] root&#45;&gt;[root] provider[&quot;registry.terraform.io/hashicorp/local&quot;] (close)</title>
<path fill="none" stroke="black" d="M2069.33,-734.84C1934.25,-729.45 1586.9,-713.66 1298,-684 1114.02,-665.11 901.15,-632.7 776.47,-612.64"/>
<polygon fill="black" stroke="black" points="776.97,-609.17 766.54,-611.04 775.86,-616.08 776.97,-609.17"/>
</g>
<!-- [root] root&#45;&gt;[root] provider[&quot;registry.terraform.io/hashicorp/null&quot;] (close) -->
<g id="edge52" class="edge">
<title>[root] root&#45;&gt;[root] provider[&quot;registry.terraform.io/hashicorp/null&quot;] (close)</title>
<path fill="none" stroke="black" d="M2074.44,-730.03C1993.86,-719.35 1837.43,-698.61 1726.02,-683.84"/>
<polygon fill="black" stroke="black" points="1726.43,-680.36 1716.06,-682.52 1725.51,-687.3 1726.43,-680.36"/>
</g>
<!-- [root] root&#45;&gt;[root] provider[&quot;registry.terraform.io/hashicorp/tls&quot;] (close) -->
<g id="edge53" class="edge">
<title>[root] root&#45;&gt;[root] provider[&quot;registry.terraform.io/hashicorp/tls&quot;] (close)</title>
<path fill="none" stroke="black" d="M2183.16,-732.83C2317.92,-722.83 2664.52,-697.1 2882.36,-680.93"/>
<polygon fill="black" stroke="black" points="2882.92,-684.4 2892.63,-680.17 2882.4,-677.42 2882.92,-684.4"/>
</g>
</g>
</svg>
