<?xml version="1.0" encoding="UTF-8" standalone="no"?>
<!DOCTYPE svg PUBLIC "-//W3C//DTD SVG 1.1//EN"
 "http://www.w3.org/Graphics/SVG/1.1/DTD/svg11.dtd">
<!-- Generated by graphviz version 2.43.0 (0)
 -->
<!-- Title: %3 Pages: 1 -->
<svg width="3044pt" height="692pt"
 viewBox="0.00 0.00 3043.69 692.00" xmlns="http://www.w3.org/2000/svg" xmlns:xlink="http://www.w3.org/1999/xlink">
<g id="graph0" class="graph" transform="scale(1 1) rotate(0) translate(4 688)">
<title>%3</title>
<polygon fill="white" stroke="transparent" points="-4,4 -4,-688 3039.69,-688 3039.69,4 -4,4"/>
<!-- [root] aws_instance.dev_node[0] -->
<g id="node1" class="node">
<title>[root] aws_instance.dev_node[0]</title>
<polygon fill="none" stroke="black" points="1157.19,-252 975.19,-252 975.19,-216 1157.19,-216 1157.19,-252"/>
<text text-anchor="middle" x="1066.19" y="-230.3" font-family="Times,serif" font-size="14.00">aws_instance.dev_node</text>
</g>
<!-- [root] local_file.generate_ansible_inventory -->
<g id="node12" class="node">
<title>[root] local_file.generate_ansible_inventory</title>
<polygon fill="none" stroke="black" points="1614.69,-180 1335.69,-180 1335.69,-144 1614.69,-144 1614.69,-180"/>
<text text-anchor="middle" x="1475.19" y="-158.3" font-family="Times,serif" font-size="14.00">local_file.generate_ansible_inventory</text>
</g>
<!-- [root] aws_instance.dev_node[0]&#45;&gt;[root] local_file.generate_ansible_inventory -->
<g id="edge1" class="edge">
<title>[root] aws_instance.dev_node[0]&#45;&gt;[root] local_file.generate_ansible_inventory</title>
<path fill="none" stroke="black" d="M1157.21,-217.42C1218.9,-206.86 1300.73,-192.86 1365.94,-181.7"/>
<polygon fill="black" stroke="black" points="1366.58,-185.14 1375.84,-180 1365.4,-178.24 1366.58,-185.14"/>
</g>
<!-- [root] local_file.generate_ansible_playbook_install_git -->
<g id="node13" class="node">
<title>[root] local_file.generate_ansible_playbook_install_git</title>
<polygon fill="none" stroke="black" points="1317.19,-180 965.19,-180 965.19,-144 1317.19,-144 1317.19,-180"/>
<text text-anchor="middle" x="1141.19" y="-158.3" font-family="Times,serif" font-size="14.00">local_file.generate_ansible_playbook_install_git</text>
</g>
<!-- [root] aws_instance.dev_node[0]&#45;&gt;[root] local_file.generate_ansible_playbook_install_git -->
<g id="edge2" class="edge">
<title>[root] aws_instance.dev_node[0]&#45;&gt;[root] local_file.generate_ansible_playbook_install_git</title>
<path fill="none" stroke="black" d="M1084.73,-215.7C1093.99,-207.05 1105.35,-196.45 1115.45,-187.03"/>
<polygon fill="black" stroke="black" points="1117.94,-189.49 1122.86,-180.1 1113.17,-184.37 1117.94,-189.49"/>
</g>
<!-- [root] local_file.generate_ansible_ssh_config_local -->
<g id="node14" class="node">
<title>[root] local_file.generate_ansible_ssh_config_local</title>
<polygon fill="none" stroke="black" points="1957.19,-180 1633.19,-180 1633.19,-144 1957.19,-144 1957.19,-180"/>
<text text-anchor="middle" x="1795.19" y="-158.3" font-family="Times,serif" font-size="14.00">local_file.generate_ansible_ssh_config_local</text>
</g>
<!-- [root] aws_instance.dev_node[0]&#45;&gt;[root] local_file.generate_ansible_ssh_config_local -->
<g id="edge3" class="edge">
<title>[root] aws_instance.dev_node[0]&#45;&gt;[root] local_file.generate_ansible_ssh_config_local</title>
<path fill="none" stroke="black" d="M1157.43,-217.14C1160.38,-216.74 1163.31,-216.36 1166.19,-216 1365.56,-191.27 1419.1,-197.88 1623.04,-180.09"/>
<polygon fill="black" stroke="black" points="1623.53,-183.56 1633.18,-179.19 1622.92,-176.58 1623.53,-183.56"/>
</g>
<!-- [root] provider[&quot;registry.terraform.io/hashicorp/aws&quot;] -->
<g id="node18" class="node">
<title>[root] provider[&quot;registry.terraform.io/hashicorp/aws&quot;]</title>
<polygon fill="none" stroke="black" points="622.19,-180 296.93,-162 622.19,-144 947.45,-162 622.19,-180"/>
<text text-anchor="middle" x="622.19" y="-158.3" font-family="Times,serif" font-size="14.00">provider[&quot;registry.terraform.io/hashicorp/aws&quot;]</text>
</g>
<!-- [root] aws_instance.dev_node[0]&#45;&gt;[root] provider[&quot;registry.terraform.io/hashicorp/aws&quot;] -->
<g id="edge4" class="edge">
<title>[root] aws_instance.dev_node[0]&#45;&gt;[root] provider[&quot;registry.terraform.io/hashicorp/aws&quot;]</title>
<path fill="none" stroke="black" d="M975,-218.62C898.13,-206.5 788.73,-189.26 712.2,-177.19"/>
<polygon fill="black" stroke="black" points="712.52,-173.7 702.09,-175.6 711.43,-180.61 712.52,-173.7"/>
</g>
<!-- [root] aws_internet_gateway.mtc_internet_gateway -->
<g id="node2" class="node">
<title>[root] aws_internet_gateway.mtc_internet_gateway</title>
<polygon fill="none" stroke="black" points="1729.19,-468 1393.19,-468 1393.19,-432 1729.19,-432 1729.19,-468"/>
<text text-anchor="middle" x="1561.19" y="-446.3" font-family="Times,serif" font-size="14.00">aws_internet_gateway.mtc_internet_gateway</text>
</g>
<!-- [root] aws_route.default_route -->
<g id="node4" class="node">
<title>[root] aws_route.default_route</title>
<polygon fill="none" stroke="black" points="1556.69,-396 1367.69,-396 1367.69,-360 1556.69,-360 1556.69,-396"/>
<text text-anchor="middle" x="1462.19" y="-374.3" font-family="Times,serif" font-size="14.00">aws_route.default_route</text>
</g>
<!-- [root] aws_internet_gateway.mtc_internet_gateway&#45;&gt;[root] aws_route.default_route -->
<g id="edge5" class="edge">
<title>[root] aws_internet_gateway.mtc_internet_gateway&#45;&gt;[root] aws_route.default_route</title>
<path fill="none" stroke="black" d="M1536.97,-431.88C1524.27,-422.89 1508.53,-411.76 1494.77,-402.03"/>
<polygon fill="black" stroke="black" points="1496.69,-399.11 1486.5,-396.19 1492.65,-404.82 1496.69,-399.11"/>
</g>
<!-- [root] aws_key_pair.mtc_auth -->
<g id="node3" class="node">
<title>[root] aws_key_pair.mtc_auth</title>
<polygon fill="none" stroke="black" points="868.19,-468 688.19,-468 688.19,-432 868.19,-432 868.19,-468"/>
<text text-anchor="middle" x="778.19" y="-446.3" font-family="Times,serif" font-size="14.00">aws_key_pair.mtc_auth</text>
</g>
<!-- [root] aws_key_pair.mtc_auth&#45;&gt;[root] aws_instance.dev_node[0] -->
<g id="edge6" class="edge">
<title>[root] aws_key_pair.mtc_auth&#45;&gt;[root] aws_instance.dev_node[0]</title>
<path fill="none" stroke="black" d="M801.27,-431.85C852.67,-393.66 976.6,-301.57 1034.89,-258.26"/>
<polygon fill="black" stroke="black" points="1037.06,-261.01 1043,-252.23 1032.88,-255.39 1037.06,-261.01"/>
</g>
<!-- [root] aws_security_group.mtc_sg -->
<g id="node7" class="node">
<title>[root] aws_security_group.mtc_sg</title>
<polygon fill="none" stroke="black" points="1431.19,-324 1219.19,-324 1219.19,-288 1431.19,-288 1431.19,-324"/>
<text text-anchor="middle" x="1325.19" y="-302.3" font-family="Times,serif" font-size="14.00">aws_security_group.mtc_sg</text>
</g>
<!-- [root] aws_route.default_route&#45;&gt;[root] aws_security_group.mtc_sg -->
<g id="edge7" class="edge">
<title>[root] aws_route.default_route&#45;&gt;[root] aws_security_group.mtc_sg</title>
<path fill="none" stroke="black" d="M1428.68,-359.88C1410.35,-350.51 1387.45,-338.81 1367.86,-328.8"/>
<polygon fill="black" stroke="black" points="1369.33,-325.62 1358.83,-324.19 1366.15,-331.86 1369.33,-325.62"/>
</g>
<!-- [root] aws_route_table.mtc_public_rt -->
<g id="node5" class="node">
<title>[root] aws_route_table.mtc_public_rt</title>
<polygon fill="none" stroke="black" points="1374.69,-468 1141.69,-468 1141.69,-432 1374.69,-432 1374.69,-468"/>
<text text-anchor="middle" x="1258.19" y="-446.3" font-family="Times,serif" font-size="14.00">aws_route_table.mtc_public_rt</text>
</g>
<!-- [root] aws_route_table.mtc_public_rt&#45;&gt;[root] aws_route.default_route -->
<g id="edge8" class="edge">
<title>[root] aws_route_table.mtc_public_rt&#45;&gt;[root] aws_route.default_route</title>
<path fill="none" stroke="black" d="M1307.83,-431.97C1336.46,-422.14 1372.64,-409.73 1402.77,-399.39"/>
<polygon fill="black" stroke="black" points="1404,-402.67 1412.32,-396.11 1401.73,-396.05 1404,-402.67"/>
</g>
<!-- [root] aws_route_table_association.mtc_public_assoc -->
<g id="node6" class="node">
<title>[root] aws_route_table_association.mtc_public_assoc</title>
<polygon fill="none" stroke="black" points="1349.19,-396 1003.19,-396 1003.19,-360 1349.19,-360 1349.19,-396"/>
<text text-anchor="middle" x="1176.19" y="-374.3" font-family="Times,serif" font-size="14.00">aws_route_table_association.mtc_public_assoc</text>
</g>
<!-- [root] aws_route_table.mtc_public_rt&#45;&gt;[root] aws_route_table_association.mtc_public_assoc -->
<g id="edge9" class="edge">
<title>[root] aws_route_table.mtc_public_rt&#45;&gt;[root] aws_route_table_association.mtc_public_assoc</title>
<path fill="none" stroke="black" d="M1237.92,-431.7C1227.69,-422.97 1215.13,-412.24 1204.01,-402.75"/>
<polygon fill="black" stroke="black" points="1206.1,-399.94 1196.23,-396.1 1201.56,-405.26 1206.1,-399.94"/>
</g>
<!-- [root] aws_route_table_association.mtc_public_assoc&#45;&gt;[root] provider[&quot;registry.terraform.io/hashicorp/aws&quot;] -->
<g id="edge10" class="edge">
<title>[root] aws_route_table_association.mtc_public_assoc&#45;&gt;[root] provider[&quot;registry.terraform.io/hashicorp/aws&quot;]</title>
<path fill="none" stroke="black" d="M1131.79,-359.85C1029.21,-320.22 776.42,-222.58 670.31,-181.59"/>
<polygon fill="black" stroke="black" points="671.4,-178.26 660.81,-177.92 668.88,-184.79 671.4,-178.26"/>
</g>
<!-- [root] aws_security_group.mtc_sg&#45;&gt;[root] aws_instance.dev_node[0] -->
<g id="edge11" class="edge">
<title>[root] aws_security_group.mtc_sg&#45;&gt;[root] aws_instance.dev_node[0]</title>
<path fill="none" stroke="black" d="M1262.16,-287.97C1225.03,-277.93 1177.89,-265.19 1139.16,-254.72"/>
<polygon fill="black" stroke="black" points="1140.07,-251.34 1129.5,-252.11 1138.24,-258.1 1140.07,-251.34"/>
</g>
<!-- [root] aws_subnet.mtc_public_subnet -->
<g id="node8" class="node">
<title>[root] aws_subnet.mtc_public_subnet</title>
<polygon fill="none" stroke="black" points="1123.69,-468 886.69,-468 886.69,-432 1123.69,-432 1123.69,-468"/>
<text text-anchor="middle" x="1005.19" y="-446.3" font-family="Times,serif" font-size="14.00">aws_subnet.mtc_public_subnet</text>
</g>
<!-- [root] aws_subnet.mtc_public_subnet&#45;&gt;[root] aws_instance.dev_node[0] -->
<g id="edge12" class="edge">
<title>[root] aws_subnet.mtc_public_subnet&#45;&gt;[root] aws_instance.dev_node[0]</title>
<path fill="none" stroke="black" d="M999.19,-431.67C993.81,-413.53 987.67,-384.37 994.19,-360 1004.22,-322.51 1028.49,-284.6 1046.08,-260.52"/>
<polygon fill="black" stroke="black" points="1049.04,-262.41 1052.23,-252.3 1043.44,-258.22 1049.04,-262.41"/>
</g>
<!-- [root] aws_subnet.mtc_public_subnet&#45;&gt;[root] aws_route_table_association.mtc_public_assoc -->
<g id="edge13" class="edge">
<title>[root] aws_subnet.mtc_public_subnet&#45;&gt;[root] aws_route_table_association.mtc_public_assoc</title>
<path fill="none" stroke="black" d="M1047.02,-431.88C1070.61,-422.22 1100.25,-410.09 1125.19,-399.88"/>
<polygon fill="black" stroke="black" points="1126.57,-403.1 1134.49,-396.07 1123.91,-396.62 1126.57,-403.1"/>
</g>
<!-- [root] aws_vpc.mtc_vpc -->
<g id="node9" class="node">
<title>[root] aws_vpc.mtc_vpc</title>
<polygon fill="none" stroke="black" points="1276.69,-540 1137.69,-540 1137.69,-504 1276.69,-504 1276.69,-540"/>
<text text-anchor="middle" x="1207.19" y="-518.3" font-family="Times,serif" font-size="14.00">aws_vpc.mtc_vpc</text>
</g>
<!-- [root] aws_vpc.mtc_vpc&#45;&gt;[root] aws_internet_gateway.mtc_internet_gateway -->
<g id="edge14" class="edge">
<title>[root] aws_vpc.mtc_vpc&#45;&gt;[root] aws_internet_gateway.mtc_internet_gateway</title>
<path fill="none" stroke="black" d="M1276.71,-507.25C1330.38,-496.64 1405.29,-481.83 1464.76,-470.07"/>
<polygon fill="black" stroke="black" points="1465.79,-473.43 1474.92,-468.06 1464.43,-466.57 1465.79,-473.43"/>
</g>
<!-- [root] aws_vpc.mtc_vpc&#45;&gt;[root] aws_route_table.mtc_public_rt -->
<g id="edge15" class="edge">
<title>[root] aws_vpc.mtc_vpc&#45;&gt;[root] aws_route_table.mtc_public_rt</title>
<path fill="none" stroke="black" d="M1219.8,-503.7C1225.79,-495.47 1233.07,-485.48 1239.67,-476.42"/>
<polygon fill="black" stroke="black" points="1242.67,-478.25 1245.73,-468.1 1237.01,-474.13 1242.67,-478.25"/>
</g>
<!-- [root] aws_vpc.mtc_vpc&#45;&gt;[root] aws_subnet.mtc_public_subnet -->
<g id="edge16" class="edge">
<title>[root] aws_vpc.mtc_vpc&#45;&gt;[root] aws_subnet.mtc_public_subnet</title>
<path fill="none" stroke="black" d="M1158.03,-503.97C1129.69,-494.14 1093.87,-481.73 1064.03,-471.39"/>
<polygon fill="black" stroke="black" points="1065.16,-468.08 1054.57,-468.11 1062.87,-474.69 1065.16,-468.08"/>
</g>
<!-- [root] data.aws_ami.server_ami -->
<g id="node10" class="node">
<title>[root] data.aws_ami.server_ami</title>
<polygon fill="none" stroke="black" points="750.69,-396 553.69,-396 553.69,-360 750.69,-360 750.69,-396"/>
<text text-anchor="middle" x="652.19" y="-374.3" font-family="Times,serif" font-size="14.00">data.aws_ami.server_ami</text>
</g>
<!-- [root] data.aws_ami.server_ami&#45;&gt;[root] provider[&quot;registry.terraform.io/hashicorp/aws&quot;] -->
<g id="edge17" class="edge">
<title>[root] data.aws_ami.server_ami&#45;&gt;[root] provider[&quot;registry.terraform.io/hashicorp/aws&quot;]</title>
<path fill="none" stroke="black" d="M649.79,-359.85C644.58,-322.74 632.25,-234.75 625.98,-190.05"/>
<polygon fill="black" stroke="black" points="629.42,-189.35 624.56,-179.94 622.49,-190.32 629.42,-189.35"/>
</g>
<!-- [root] data.external.current_user -->
<g id="node11" class="node">
<title>[root] data.external.current_user</title>
<polygon fill="none" stroke="black" points="2242.19,-540 2034.19,-540 2034.19,-504 2242.19,-504 2242.19,-540"/>
<text text-anchor="middle" x="2138.19" y="-518.3" font-family="Times,serif" font-size="14.00">data.external.current_user</text>
</g>
<!-- [root] data.external.current_user&#45;&gt;[root] local_file.generate_ansible_ssh_config_local -->
<g id="edge18" class="edge">
<title>[root] data.external.current_user&#45;&gt;[root] local_file.generate_ansible_ssh_config_local</title>
<path fill="none" stroke="black" d="M2033.87,-516.46C1951.41,-510.66 1845.19,-497.54 1814.19,-468 1784.91,-440.1 1795.19,-419.45 1795.19,-379 1795.19,-379 1795.19,-379 1795.19,-305 1795.19,-265 1795.19,-218.65 1795.19,-190.08"/>
<polygon fill="black" stroke="black" points="1798.69,-190.05 1795.19,-180.05 1791.69,-190.05 1798.69,-190.05"/>
</g>
<!-- [root] provider[&quot;registry.terraform.io/hashicorp/external&quot;] -->
<g id="node19" class="node">
<title>[root] provider[&quot;registry.terraform.io/hashicorp/external&quot;]</title>
<polygon fill="none" stroke="black" points="2178.19,-468 1823.6,-450 2178.19,-432 2532.78,-450 2178.19,-468"/>
<text text-anchor="middle" x="2178.19" y="-446.3" font-family="Times,serif" font-size="14.00">provider[&quot;registry.terraform.io/hashicorp/external&quot;]</text>
</g>
<!-- [root] data.external.current_user&#45;&gt;[root] provider[&quot;registry.terraform.io/hashicorp/external&quot;] -->
<g id="edge19" class="edge">
<title>[root] data.external.current_user&#45;&gt;[root] provider[&quot;registry.terraform.io/hashicorp/external&quot;]</title>
<path fill="none" stroke="black" d="M2148.08,-503.7C2152.75,-495.52 2158.42,-485.6 2163.57,-476.58"/>
<polygon fill="black" stroke="black" points="2166.77,-478.04 2168.69,-467.62 2160.69,-474.57 2166.77,-478.04"/>
</g>
<!-- [root] provider[&quot;registry.terraform.io/hashicorp/local&quot;] -->
<g id="node20" class="node">
<title>[root] provider[&quot;registry.terraform.io/hashicorp/local&quot;]</title>
<polygon fill="none" stroke="black" points="1475.19,-108 1145.24,-90 1475.19,-72 1805.15,-90 1475.19,-108"/>
<text text-anchor="middle" x="1475.19" y="-86.3" font-family="Times,serif" font-size="14.00">provider[&quot;registry.terraform.io/hashicorp/local&quot;]</text>
</g>
<!-- [root] local_file.generate_ansible_inventory&#45;&gt;[root] provider[&quot;registry.terraform.io/hashicorp/local&quot;] -->
<g id="edge20" class="edge">
<title>[root] local_file.generate_ansible_inventory&#45;&gt;[root] provider[&quot;registry.terraform.io/hashicorp/local&quot;]</title>
<path fill="none" stroke="black" d="M1475.19,-143.7C1475.19,-135.98 1475.19,-126.71 1475.19,-118.11"/>
<polygon fill="black" stroke="black" points="1478.69,-118.1 1475.19,-108.1 1471.69,-118.1 1478.69,-118.1"/>
</g>
<!-- [root] local_file.generate_ansible_playbook_install_git&#45;&gt;[root] provider[&quot;registry.terraform.io/hashicorp/local&quot;] -->
<g id="edge21" class="edge">
<title>[root] local_file.generate_ansible_playbook_install_git&#45;&gt;[root] provider[&quot;registry.terraform.io/hashicorp/local&quot;]</title>
<path fill="none" stroke="black" d="M1222.47,-143.97C1276.8,-132.58 1347.74,-117.71 1400.62,-106.63"/>
<polygon fill="black" stroke="black" points="1401.54,-110.01 1410.61,-104.53 1400.11,-103.16 1401.54,-110.01"/>
</g>
<!-- [root] null_resource.update_ssh_config -->
<g id="node15" class="node">
<title>[root] null_resource.update_ssh_config</title>
<polygon fill="none" stroke="black" points="2265.69,-108 2018.69,-108 2018.69,-72 2265.69,-72 2265.69,-108"/>
<text text-anchor="middle" x="2142.19" y="-86.3" font-family="Times,serif" font-size="14.00">null_resource.update_ssh_config</text>
</g>
<!-- [root] local_file.generate_ansible_ssh_config_local&#45;&gt;[root] null_resource.update_ssh_config -->
<g id="edge22" class="edge">
<title>[root] local_file.generate_ansible_ssh_config_local&#45;&gt;[root] null_resource.update_ssh_config</title>
<path fill="none" stroke="black" d="M1879.63,-143.97C1930.42,-133.72 1995.19,-120.66 2047.68,-110.07"/>
<polygon fill="black" stroke="black" points="2048.56,-113.46 2057.67,-108.05 2047.18,-106.6 2048.56,-113.46"/>
</g>
<!-- [root] local_file.generate_ansible_ssh_config_local&#45;&gt;[root] provider[&quot;registry.terraform.io/hashicorp/local&quot;] -->
<g id="edge23" class="edge">
<title>[root] local_file.generate_ansible_ssh_config_local&#45;&gt;[root] provider[&quot;registry.terraform.io/hashicorp/local&quot;]</title>
<path fill="none" stroke="black" d="M1717.32,-143.97C1665.55,-132.64 1598.04,-117.87 1547.46,-106.81"/>
<polygon fill="black" stroke="black" points="1548.09,-103.36 1537.58,-104.65 1546.6,-110.2 1548.09,-103.36"/>
</g>
<!-- [root] provider[&quot;registry.terraform.io/hashicorp/null&quot;] -->
<g id="node21" class="node">
<title>[root] provider[&quot;registry.terraform.io/hashicorp/null&quot;]</title>
<polygon fill="none" stroke="black" points="2142.19,-36 1817.77,-18 2142.19,0 2466.62,-18 2142.19,-36"/>
<text text-anchor="middle" x="2142.19" y="-14.3" font-family="Times,serif" font-size="14.00">provider[&quot;registry.terraform.io/hashicorp/null&quot;]</text>
</g>
<!-- [root] null_resource.update_ssh_config&#45;&gt;[root] provider[&quot;registry.terraform.io/hashicorp/null&quot;] -->
<g id="edge24" class="edge">
<title>[root] null_resource.update_ssh_config&#45;&gt;[root] provider[&quot;registry.terraform.io/hashicorp/null&quot;]</title>
<path fill="none" stroke="black" d="M2142.19,-71.7C2142.19,-63.98 2142.19,-54.71 2142.19,-46.11"/>
<polygon fill="black" stroke="black" points="2145.69,-46.1 2142.19,-36.1 2138.69,-46.1 2145.69,-46.1"/>
</g>
<!-- [root] output.dev_ip (destroy) -->
<g id="node16" class="node">
<title>[root] output.dev_ip (destroy)</title>
<polygon fill="none" stroke="black" points="2766.69,-612 2589.69,-612 2589.69,-576 2772.69,-576 2772.69,-606 2766.69,-612"/>
<polyline fill="none" stroke="black" points="2766.69,-612 2766.69,-606 "/>
<polyline fill="none" stroke="black" points="2772.69,-606 2766.69,-606 "/>
<text text-anchor="middle" x="2681.19" y="-590.3" font-family="Times,serif" font-size="14.00">output.dev_ip (destroy)</text>
</g>
<!-- [root] output.dev_public_dns (destroy) -->
<g id="node17" class="node">
<title>[root] output.dev_public_dns (destroy)</title>
<polygon fill="none" stroke="black" points="3029.69,-612 2790.69,-612 2790.69,-576 3035.69,-576 3035.69,-606 3029.69,-612"/>
<polyline fill="none" stroke="black" points="3029.69,-612 3029.69,-606 "/>
<polyline fill="none" stroke="black" points="3035.69,-606 3029.69,-606 "/>
<text text-anchor="middle" x="2913.19" y="-590.3" font-family="Times,serif" font-size="14.00">output.dev_public_dns (destroy)</text>
</g>
<!-- [root] provider[&quot;registry.terraform.io/hashicorp/tls&quot;] -->
<g id="node22" class="node">
<title>[root] provider[&quot;registry.terraform.io/hashicorp/tls&quot;]</title>
<polygon fill="none" stroke="black" points="316.19,-468 -0.19,-450 316.19,-432 632.57,-450 316.19,-468"/>
<text text-anchor="middle" x="316.19" y="-446.3" font-family="Times,serif" font-size="14.00">provider[&quot;registry.terraform.io/hashicorp/tls&quot;]</text>
</g>
<!-- [root] tls_private_key.pk -->
<g id="node23" class="node">
<title>[root] tls_private_key.pk</title>
<polygon fill="none" stroke="black" points="631.69,-540 488.69,-540 488.69,-504 631.69,-504 631.69,-540"/>
<text text-anchor="middle" x="560.19" y="-518.3" font-family="Times,serif" font-size="14.00">tls_private_key.pk</text>
</g>
<!-- [root] tls_private_key.pk&#45;&gt;[root] aws_key_pair.mtc_auth -->
<g id="edge41" class="edge">
<title>[root] tls_private_key.pk&#45;&gt;[root] aws_key_pair.mtc_auth</title>
<path fill="none" stroke="black" d="M613.24,-503.97C643.96,-494.1 682.83,-481.62 715.11,-471.25"/>
<polygon fill="black" stroke="black" points="716.45,-474.5 724.9,-468.11 714.31,-467.84 716.45,-474.5"/>
</g>
<!-- [root] tls_private_key.pk&#45;&gt;[root] provider[&quot;registry.terraform.io/hashicorp/tls&quot;] -->
<g id="edge42" class="edge">
<title>[root] tls_private_key.pk&#45;&gt;[root] provider[&quot;registry.terraform.io/hashicorp/tls&quot;]</title>
<path fill="none" stroke="black" d="M500.81,-503.97C462.87,-493.08 413.84,-479.02 375.85,-468.12"/>
<polygon fill="black" stroke="black" points="376.52,-464.67 365.94,-465.27 374.59,-471.4 376.52,-464.67"/>
</g>
<!-- [root] provider[&quot;registry.terraform.io/hashicorp/aws&quot;] (close) -->
<g id="node24" class="node">
<title>[root] provider[&quot;registry.terraform.io/hashicorp/aws&quot;] (close)</title>
<ellipse fill="none" stroke="black" cx="1194.19" cy="-594" rx="291.65" ry="18"/>
<text text-anchor="middle" x="1194.19" y="-590.3" font-family="Times,serif" font-size="14.00">[root] provider[&quot;registry.terraform.io/hashicorp/aws&quot;] (close)</text>
</g>
<!-- [root] provider[&quot;registry.terraform.io/hashicorp/aws&quot;] (close)&#45;&gt;[root] aws_key_pair.mtc_auth -->
<g id="edge25" class="edge">
<title>[root] provider[&quot;registry.terraform.io/hashicorp/aws&quot;] (close)&#45;&gt;[root] aws_key_pair.mtc_auth</title>
<path fill="none" stroke="black" d="M1144.84,-576.15C1068.03,-549.94 920.17,-499.46 837.62,-471.29"/>
<polygon fill="black" stroke="black" points="838.72,-467.96 828.13,-468.05 836.46,-474.59 838.72,-467.96"/>
</g>
<!-- [root] provider[&quot;registry.terraform.io/hashicorp/aws&quot;] (close)&#45;&gt;[root] aws_vpc.mtc_vpc -->
<g id="edge26" class="edge">
<title>[root] provider[&quot;registry.terraform.io/hashicorp/aws&quot;] (close)&#45;&gt;[root] aws_vpc.mtc_vpc</title>
<path fill="none" stroke="black" d="M1197.4,-575.7C1198.84,-567.98 1200.56,-558.71 1202.15,-550.11"/>
<polygon fill="black" stroke="black" points="1205.63,-550.58 1204.01,-540.1 1198.75,-549.3 1205.63,-550.58"/>
</g>
<!-- [root] provider[&quot;registry.terraform.io/hashicorp/aws&quot;] (close)&#45;&gt;[root] data.aws_ami.server_ami -->
<g id="edge27" class="edge">
<title>[root] provider[&quot;registry.terraform.io/hashicorp/aws&quot;] (close)&#45;&gt;[root] data.aws_ami.server_ami</title>
<path fill="none" stroke="black" d="M1070.31,-577.65C936.16,-558.56 733.97,-521.78 679.19,-468 662.76,-451.87 656.26,-426.1 653.72,-406.43"/>
<polygon fill="black" stroke="black" points="657.18,-405.82 652.68,-396.23 650.21,-406.53 657.18,-405.82"/>
</g>
<!-- [root] provider[&quot;registry.terraform.io/hashicorp/external&quot;] (close) -->
<g id="node25" class="node">
<title>[root] provider[&quot;registry.terraform.io/hashicorp/external&quot;] (close)</title>
<ellipse fill="none" stroke="black" cx="2138.19" cy="-594" rx="312.74" ry="18"/>
<text text-anchor="middle" x="2138.19" y="-590.3" font-family="Times,serif" font-size="14.00">[root] provider[&quot;registry.terraform.io/hashicorp/external&quot;] (close)</text>
</g>
<!-- [root] provider[&quot;registry.terraform.io/hashicorp/external&quot;] (close)&#45;&gt;[root] data.external.current_user -->
<g id="edge28" class="edge">
<title>[root] provider[&quot;registry.terraform.io/hashicorp/external&quot;] (close)&#45;&gt;[root] data.external.current_user</title>
<path fill="none" stroke="black" d="M2138.19,-575.7C2138.19,-567.98 2138.19,-558.71 2138.19,-550.11"/>
<polygon fill="black" stroke="black" points="2141.69,-550.1 2138.19,-540.1 2134.69,-550.1 2141.69,-550.1"/>
</g>
<!-- [root] provider[&quot;registry.terraform.io/hashicorp/local&quot;] (close) -->
<g id="node26" class="node">
<title>[root] provider[&quot;registry.terraform.io/hashicorp/local&quot;] (close)</title>
<ellipse fill="none" stroke="black" cx="1471.19" cy="-234" rx="295.95" ry="18"/>
<text text-anchor="middle" x="1471.19" y="-230.3" font-family="Times,serif" font-size="14.00">[root] provider[&quot;registry.terraform.io/hashicorp/local&quot;] (close)</text>
</g>
<!-- [root] provider[&quot;registry.terraform.io/hashicorp/local&quot;] (close)&#45;&gt;[root] local_file.generate_ansible_inventory -->
<g id="edge29" class="edge">
<title>[root] provider[&quot;registry.terraform.io/hashicorp/local&quot;] (close)&#45;&gt;[root] local_file.generate_ansible_inventory</title>
<path fill="none" stroke="black" d="M1472.18,-215.7C1472.62,-207.98 1473.15,-198.71 1473.64,-190.11"/>
<polygon fill="black" stroke="black" points="1477.14,-190.29 1474.21,-180.1 1470.15,-189.89 1477.14,-190.29"/>
</g>
<!-- [root] provider[&quot;registry.terraform.io/hashicorp/local&quot;] (close)&#45;&gt;[root] local_file.generate_ansible_playbook_install_git -->
<g id="edge30" class="edge">
<title>[root] provider[&quot;registry.terraform.io/hashicorp/local&quot;] (close)&#45;&gt;[root] local_file.generate_ansible_playbook_install_git</title>
<path fill="none" stroke="black" d="M1393.82,-216.59C1345.24,-206.28 1282.39,-192.95 1231.53,-182.16"/>
<polygon fill="black" stroke="black" points="1232.03,-178.69 1221.52,-180.04 1230.58,-185.54 1232.03,-178.69"/>
</g>
<!-- [root] provider[&quot;registry.terraform.io/hashicorp/local&quot;] (close)&#45;&gt;[root] local_file.generate_ansible_ssh_config_local -->
<g id="edge31" class="edge">
<title>[root] provider[&quot;registry.terraform.io/hashicorp/local&quot;] (close)&#45;&gt;[root] local_file.generate_ansible_ssh_config_local</title>
<path fill="none" stroke="black" d="M1547.15,-216.59C1594.85,-206.28 1656.56,-192.95 1706.5,-182.16"/>
<polygon fill="black" stroke="black" points="1707.28,-185.57 1716.32,-180.04 1705.81,-178.73 1707.28,-185.57"/>
</g>
<!-- [root] provider[&quot;registry.terraform.io/hashicorp/null&quot;] (close) -->
<g id="node27" class="node">
<title>[root] provider[&quot;registry.terraform.io/hashicorp/null&quot;] (close)</title>
<ellipse fill="none" stroke="black" cx="2338.19" cy="-306" rx="291.65" ry="18"/>
<text text-anchor="middle" x="2338.19" y="-302.3" font-family="Times,serif" font-size="14.00">[root] provider[&quot;registry.terraform.io/hashicorp/null&quot;] (close)</text>
</g>
<!-- [root] provider[&quot;registry.terraform.io/hashicorp/null&quot;] (close)&#45;&gt;[root] null_resource.update_ssh_config -->
<g id="edge32" class="edge">
<title>[root] provider[&quot;registry.terraform.io/hashicorp/null&quot;] (close)&#45;&gt;[root] null_resource.update_ssh_config</title>
<path fill="none" stroke="black" d="M2322.48,-287.85C2287.93,-250.13 2205.23,-159.83 2164.97,-115.88"/>
<polygon fill="black" stroke="black" points="2167.31,-113.24 2157.97,-108.23 2162.15,-117.97 2167.31,-113.24"/>
</g>
<!-- [root] provider[&quot;registry.terraform.io/hashicorp/tls&quot;] (close) -->
<g id="node28" class="node">
<title>[root] provider[&quot;registry.terraform.io/hashicorp/tls&quot;] (close)</title>
<ellipse fill="none" stroke="black" cx="573.19" cy="-594" rx="285.95" ry="18"/>
<text text-anchor="middle" x="573.19" y="-590.3" font-family="Times,serif" font-size="14.00">[root] provider[&quot;registry.terraform.io/hashicorp/tls&quot;] (close)</text>
</g>
<!-- [root] provider[&quot;registry.terraform.io/hashicorp/tls&quot;] (close)&#45;&gt;[root] tls_private_key.pk -->
<g id="edge33" class="edge">
<title>[root] provider[&quot;registry.terraform.io/hashicorp/tls&quot;] (close)&#45;&gt;[root] tls_private_key.pk</title>
<path fill="none" stroke="black" d="M569.98,-575.7C568.54,-567.98 566.82,-558.71 565.23,-550.11"/>
<polygon fill="black" stroke="black" points="568.63,-549.3 563.37,-540.1 561.75,-550.58 568.63,-549.3"/>
</g>
<!-- [root] root -->
<g id="node29" class="node">
<title>[root] root</title>
<ellipse fill="none" stroke="black" cx="2138.19" cy="-666" rx="58.49" ry="18"/>
<text text-anchor="middle" x="2138.19" y="-662.3" font-family="Times,serif" font-size="14.00">[root] root</text>
</g>
<!-- [root] root&#45;&gt;[root] output.dev_ip (destroy) -->
<g id="edge34" class="edge">
<title>[root] root&#45;&gt;[root] output.dev_ip (destroy)</title>
<path fill="none" stroke="black" d="M2192.44,-659.1C2275.14,-649.95 2437.65,-631.36 2575.19,-612 2576.66,-611.79 2578.14,-611.58 2579.63,-611.37"/>
<polygon fill="black" stroke="black" points="2580.19,-614.82 2589.58,-609.92 2579.18,-607.9 2580.19,-614.82"/>
</g>
<!-- [root] root&#45;&gt;[root] output.dev_public_dns (destroy) -->
<g id="edge35" class="edge">
<title>[root] root&#45;&gt;[root] output.dev_public_dns (destroy)</title>
<path fill="none" stroke="black" d="M2194.7,-661.25C2305.16,-653.71 2557.69,-635.53 2780.25,-612.18"/>
<polygon fill="black" stroke="black" points="2780.91,-615.63 2790.49,-611.1 2780.17,-608.67 2780.91,-615.63"/>
</g>
<!-- [root] root&#45;&gt;[root] provider[&quot;registry.terraform.io/hashicorp/aws&quot;] (close) -->
<g id="edge36" class="edge">
<title>[root] root&#45;&gt;[root] provider[&quot;registry.terraform.io/hashicorp/aws&quot;] (close)</title>
<path fill="none" stroke="black" d="M2081.97,-660.83C1947.36,-650.85 1601.6,-625.21 1383.45,-609.03"/>
<polygon fill="black" stroke="black" points="1383.39,-605.52 1373.16,-608.27 1382.88,-612.5 1383.39,-605.52"/>
</g>
<!-- [root] root&#45;&gt;[root] provider[&quot;registry.terraform.io/hashicorp/external&quot;] (close) -->
<g id="edge37" class="edge">
<title>[root] root&#45;&gt;[root] provider[&quot;registry.terraform.io/hashicorp/external&quot;] (close)</title>
<path fill="none" stroke="black" d="M2138.19,-647.7C2138.19,-639.98 2138.19,-630.71 2138.19,-622.11"/>
<polygon fill="black" stroke="black" points="2141.69,-622.1 2138.19,-612.1 2134.69,-622.1 2141.69,-622.1"/>
</g>
<!-- [root] root&#45;&gt;[root] provider[&quot;registry.terraform.io/hashicorp/local&quot;] (close) -->
<g id="edge38" class="edge">
<title>[root] root&#45;&gt;[root] provider[&quot;registry.terraform.io/hashicorp/local&quot;] (close)</title>
<path fill="none" stroke="black" d="M2081.56,-661.11C2001.19,-654.69 1859.06,-639.74 1816.19,-612 1776.34,-586.22 1757.19,-570.46 1757.19,-523 1757.19,-523 1757.19,-523 1757.19,-377 1757.19,-305.66 1684.91,-270.16 1613.02,-252.49"/>
<polygon fill="black" stroke="black" points="1613.42,-248.99 1602.89,-250.12 1611.83,-255.81 1613.42,-248.99"/>
</g>
<!-- [root] root&#45;&gt;[root] provider[&quot;registry.terraform.io/hashicorp/null&quot;] (close) -->
<g id="edge39" class="edge">
<title>[root] root&#45;&gt;[root] provider[&quot;registry.terraform.io/hashicorp/null&quot;] (close)</title>
<path fill="none" stroke="black" d="M2196.59,-664.94C2263.39,-662.77 2374.57,-652.59 2460.19,-612 2514.25,-586.37 2561.19,-582.83 2561.19,-523 2561.19,-523 2561.19,-523 2561.19,-449 2561.19,-382.34 2489.42,-345.61 2427.31,-326.31"/>
<polygon fill="black" stroke="black" points="2428.02,-322.87 2417.44,-323.36 2426.02,-329.58 2428.02,-322.87"/>
</g>
<!-- [root] root&#45;&gt;[root] provider[&quot;registry.terraform.io/hashicorp/tls&quot;] (close) -->
<g id="edge40" class="edge">
<title>[root] root&#45;&gt;[root] provider[&quot;registry.terraform.io/hashicorp/tls&quot;] (close)</title>
<path fill="none" stroke="black" d="M2080.47,-662.76C1903.17,-655.83 1350.77,-633.89 893.19,-612 860.31,-610.43 825.54,-608.67 791.51,-606.91"/>
<polygon fill="black" stroke="black" points="791.62,-603.41 781.46,-606.38 791.26,-610.4 791.62,-603.41"/>
</g>
</g>
</svg>
